<?xml version="1.0" standalone="no"?>
<!DOCTYPE svg PUBLIC "-//W3C//DTD SVG 20010904//EN"
 "http://www.w3.org/TR/2001/REC-SVG-20010904/DTD/svg10.dtd">
<svg version="1.0" xmlns="http://www.w3.org/2000/svg"
 width="512.000000pt" height="512.000000pt" viewBox="0 0 512.000000 512.000000"
 preserveAspectRatio="xMidYMid meet">

<g transform="translate(0.000000,512.000000) scale(0.100000,-0.100000)"
fill="#000000" stroke="none">
<path d="M1 4603 c1 -342 4 -500 10 -464 30 179 185 330 369 360 90 15 4270
15 4360 0 184 -30 339 -181 369 -360 6 -36 9 122 10 464 l1 517 -2560 0 -2560
0 1 -517z"/>
<path d="M1119 3608 c333 -332 796 -792 1029 -1023 l422 -420 1023 1023 1022
1022 -2051 0 -2051 0 606 -602z"/>
<path d="M300 2559 l0 -1444 725 725 724 724 -27 29 c-15 16 -341 340 -724
719 l-698 690 0 -1443z"/>
<path d="M4095 3280 l-720 -720 723 -723 722 -722 0 1443 c0 793 -1 1442 -3
1442 -1 0 -326 -324 -722 -720z"/>
<path d="M1229 1634 l-724 -724 2055 0 2055 0 -722 722 -723 723 -263 -263
c-208 -208 -270 -265 -300 -273 -59 -16 -104 2 -167 67 -30 30 -152 149 -271
264 l-215 209 -725 -725z"/>
<path d="M1 518 l-1 -518 2560 0 2560 0 -1 518 c-1 341 -4 499 -10 463 -30
-179 -185 -330 -369 -360 -90 -15 -4270 -15 -4360 0 -184 30 -339 181 -369
360 -6 36 -9 -122 -10 -463z"/>
</g>
</svg>
