<?xml version="1.0" standalone="no"?>
<!DOCTYPE svg PUBLIC "-//W3C//DTD SVG 20010904//EN"
 "http://www.w3.org/TR/2001/REC-SVG-20010904/DTD/svg10.dtd">
<svg version="1.0" xmlns="http://www.w3.org/2000/svg"
 width="512.000000pt" height="512.000000pt" viewBox="0 0 512.000000 512.000000"
 preserveAspectRatio="xMidYMid meet">

<g transform="translate(0.000000,512.000000) scale(0.100000,-0.100000)"
fill="#000000" stroke="none">
<path d="M1 4648 c0 -284 4 -461 9 -444 5 16 21 42 37 58 51 54 70 54 379 -7
153 -30 282 -55 287 -55 4 0 7 6 7 13 0 8 22 58 49 113 152 312 428 525 776
600 108 23 322 23 430 -1 354 -76 627 -289 783 -612 29 -62 55 -113 56 -113 1
0 124 24 272 54 l271 55 174 -34 c96 -18 473 -93 838 -166 631 -126 666 -134
698 -162 18 -16 37 -43 42 -61 6 -19 10 203 10 602 l1 632 -2560 0 -2560 0 1
-472z"/>
<path d="M1569 4630 c-242 -60 -454 -238 -556 -468 -64 -144 -80 -327 -42
-475 48 -190 210 -538 414 -892 108 -189 367 -605 375 -605 3 0 67 98 141 218
348 556 579 1011 645 1270 65 257 -7 519 -200 720 -163 171 -356 253 -591 251
-72 0 -137 -7 -186 -19z m284 -335 c239 -51 404 -284 367 -522 -39 -252 -281
-432 -527 -393 -253 40 -432 280 -393 528 30 189 178 347 363 387 81 18 108
18 190 0z"/>
<path d="M1682 3994 c-110 -56 -124 -216 -25 -291 45 -35 125 -43 177 -18 114
54 129 216 29 292 -45 34 -131 42 -181 17z"/>
<path d="M300 2371 c0 -886 1 -1611 3 -1611 1 0 295 -58 652 -130 357 -71 651
-130 652 -130 2 0 3 310 3 689 l0 690 -103 158 c-395 603 -680 1138 -792 1483
-38 118 -69 292 -63 349 5 42 3 42 -172 76 -74 15 -145 29 -157 32 l-23 5 0
-1611z"/>
<path d="M3025 3944 c-88 -18 -161 -33 -162 -34 0 0 1 -17 4 -37 7 -60 -23
-230 -62 -353 -112 -345 -397 -880 -792 -1483 l-103 -158 0 -690 c0 -379 1
-689 3 -689 4 0 1251 249 1275 255 l22 5 0 1610 c0 1282 -3 1610 -12 1609 -7
-1 -85 -16 -173 -35z"/>
<path d="M3510 2371 c0 -886 1 -1611 3 -1611 1 0 295 -58 652 -130 357 -71
651 -130 652 -130 2 0 3 724 3 1609 0 1524 -1 1610 -17 1615 -10 3 -295 60
-633 126 -338 67 -625 124 -637 127 l-23 5 0 -1611z"/>
<path d="M1 313 l-1 -313 2560 0 2560 0 -1 153 c0 102 -4 143 -9 123 -5 -16
-21 -42 -36 -58 -57 -58 -23 -63 -906 113 l-808 160 -800 -160 -799 -160 -837
166 c-803 160 -839 168 -871 196 -18 16 -37 43 -42 61 -6 20 -10 -75 -10 -281z"/>
</g>
</svg>
