<?xml version="1.0" standalone="no"?>
<!DOCTYPE svg PUBLIC "-//W3C//DTD SVG 20010904//EN"
 "http://www.w3.org/TR/2001/REC-SVG-20010904/DTD/svg10.dtd">
<svg version="1.0" xmlns="http://www.w3.org/2000/svg"
 width="512.000000pt" height="512.000000pt" viewBox="0 0 512.000000 512.000000"
 preserveAspectRatio="xMidYMid meet">

<g transform="translate(0.000000,512.000000) scale(0.100000,-0.100000)"
fill="#000000" stroke="none">
<path d="M2 4428 c1 -381 3 -673 5 -648 35 478 314 913 740 1156 159 90 371
157 556 173 58 5 -165 9 -605 10 l-698 1 2 -692z"/>
<path d="M1493 5105 c49 -17 84 -49 96 -89 20 -61 261 -1203 261 -1235 0 -18
-5 -42 -11 -54 -6 -12 -113 -124 -237 -249 l-226 -227 18 -38 c79 -169 300
-510 462 -713 138 -173 471 -506 644 -644 203 -162 544 -383 713 -462 l38 -18
227 226 c125 124 237 231 249 237 12 6 36 11 54 11 32 0 1174 -241 1235 -261
40 -12 72 -47 89 -96 12 -33 14 34 14 507 -1 350 -4 534 -10 513 -13 -44 -62
-90 -110 -103 -79 -22 -167 29 -189 108 -5 20 -10 74 -10 119 0 173 -45 425
-112 632 -47 142 -171 397 -253 521 -372 555 -950 914 -1605 996 -63 8 -150
14 -195 14 -44 0 -97 5 -117 10 -79 22 -130 110 -108 189 13 48 59 97 103 110
21 6 -163 9 -513 10 -473 0 -540 -2 -507 -14z m1322 -646 c189 -23 419 -95
609 -190 198 -100 347 -211 512 -380 268 -276 436 -602 509 -984 23 -123 37
-339 25 -385 -35 -130 -211 -156 -282 -41 -17 27 -22 58 -29 166 -19 308 -119
596 -292 842 -79 113 -267 301 -380 380 -244 172 -598 293 -855 293 -43 0 -94
5 -114 10 -79 22 -130 110 -108 189 13 48 59 97 103 110 34 11 171 6 302 -10z
m-3 -650 c503 -100 895 -493 998 -1000 12 -56 22 -145 23 -198 2 -81 -1 -101
-18 -129 -60 -100 -210 -101 -269 -2 -13 23 -21 65 -27 144 -36 485 -410 859
-895 895 -79 6 -121 14 -144 27 -34 21 -64 63 -74 107 -16 66 39 156 107 176
43 13 179 4 299 -20z"/>
<path d="M2750 5109 c319 -23 645 -112 935 -254 816 -400 1359 -1206 1424
-2112 5 -60 9 450 10 1135 l1 1242 -1237 -1 c-681 -1 -1191 -5 -1133 -10z"/>
<path d="M1237 4783 c-447 -76 -815 -445 -901 -903 -19 -100 -20 -288 -2 -391
17 -95 71 -254 147 -432 454 -1062 1248 -1912 2268 -2431 292 -148 587 -264
740 -292 103 -18 291 -17 391 2 460 87 827 455 904 906 11 65 11 74 -3 79 -9
3 -224 50 -479 104 l-462 99 -238 -236 c-130 -130 -250 -242 -265 -247 -56
-21 -92 -12 -233 58 -850 420 -1585 1155 -2005 2005 -70 141 -79 177 -58 233
5 15 117 135 247 265 l236 238 -99 462 c-54 255 -101 470 -104 479 -5 14 -14
14 -84 2z"/>
<path d="M1 1813 l-1 -1813 1813 1 c996 1 1778 5 1737 9 -239 23 -554 137
-955 344 -495 256 -905 555 -1295 946 -473 473 -849 1027 -1108 1637 -115 269
-165 438 -182 613 -4 41 -8 -741 -9 -1737z"/>
<path d="M5107 1297 c-12 -174 -88 -412 -186 -577 -146 -245 -386 -465 -632
-579 -154 -71 -349 -122 -509 -134 -25 -2 267 -4 648 -5 l692 -2 0 695 c0 382
-2 695 -3 695 -2 0 -7 -42 -10 -93z"/>
</g>
</svg>
